<mxfile host="app.diagrams.net" agent="Mozilla/5.0 (Windows NT 10.0; Win64; x64) AppleWebKit/537.36 (KHTML, like Gecko) Chrome/131.0.0.0 Safari/537.36" version="25.0.3">
  <diagram name="Страница — 1" id="yVwoiWJdx3ZFp3rpr8LI">
    <mxGraphModel dx="1195" dy="650" grid="1" gridSize="10" guides="1" tooltips="1" connect="1" arrows="1" fold="1" page="1" pageScale="1" pageWidth="827" pageHeight="1169" math="0" shadow="0">
      <root>
        <mxCell id="0" />
        <mxCell id="1" parent="0" />
        <mxCell id="Ovh7vEMm-vPmfpvyHuoS-1" value="Клиент" style="rounded=0;whiteSpace=wrap;html=1;" vertex="1" parent="1">
          <mxGeometry x="240" y="630" width="120" height="60" as="geometry" />
        </mxCell>
        <mxCell id="Ovh7vEMm-vPmfpvyHuoS-2" value="Заказ" style="rounded=0;whiteSpace=wrap;html=1;" vertex="1" parent="1">
          <mxGeometry x="360" y="410" width="120" height="60" as="geometry" />
        </mxCell>
        <mxCell id="Ovh7vEMm-vPmfpvyHuoS-3" value="Сотрудник" style="rounded=0;whiteSpace=wrap;html=1;" vertex="1" parent="1">
          <mxGeometry x="360" y="170" width="120" height="60" as="geometry" />
        </mxCell>
        <mxCell id="Ovh7vEMm-vPmfpvyHuoS-4" value="Поставщик" style="rounded=0;whiteSpace=wrap;html=1;" vertex="1" parent="1">
          <mxGeometry x="780" y="630" width="120" height="60" as="geometry" />
        </mxCell>
        <mxCell id="Ovh7vEMm-vPmfpvyHuoS-8" style="edgeStyle=orthogonalEdgeStyle;rounded=0;orthogonalLoop=1;jettySize=auto;html=1;endArrow=ERzeroToMany;endFill=0;" edge="1" parent="1" source="Ovh7vEMm-vPmfpvyHuoS-7" target="Ovh7vEMm-vPmfpvyHuoS-3">
          <mxGeometry relative="1" as="geometry" />
        </mxCell>
        <mxCell id="Ovh7vEMm-vPmfpvyHuoS-9" style="edgeStyle=orthogonalEdgeStyle;rounded=0;orthogonalLoop=1;jettySize=auto;html=1;entryX=0.5;entryY=0;entryDx=0;entryDy=0;endArrow=ERzeroToMany;endFill=0;" edge="1" parent="1" source="Ovh7vEMm-vPmfpvyHuoS-7" target="Ovh7vEMm-vPmfpvyHuoS-2">
          <mxGeometry relative="1" as="geometry" />
        </mxCell>
        <mxCell id="Ovh7vEMm-vPmfpvyHuoS-7" value="Выполняет" style="rhombus;whiteSpace=wrap;html=1;" vertex="1" parent="1">
          <mxGeometry x="380" y="280" width="80" height="80" as="geometry" />
        </mxCell>
        <mxCell id="Ovh7vEMm-vPmfpvyHuoS-13" style="edgeStyle=orthogonalEdgeStyle;rounded=0;orthogonalLoop=1;jettySize=auto;html=1;entryX=0;entryY=0.5;entryDx=0;entryDy=0;endArrow=ERzeroToMany;endFill=0;" edge="1" parent="1" source="Ovh7vEMm-vPmfpvyHuoS-10" target="Ovh7vEMm-vPmfpvyHuoS-2">
          <mxGeometry relative="1" as="geometry">
            <Array as="points">
              <mxPoint x="300" y="440" />
            </Array>
          </mxGeometry>
        </mxCell>
        <mxCell id="Ovh7vEMm-vPmfpvyHuoS-17" style="edgeStyle=orthogonalEdgeStyle;rounded=0;orthogonalLoop=1;jettySize=auto;html=1;endArrow=ERone;endFill=0;" edge="1" parent="1" source="Ovh7vEMm-vPmfpvyHuoS-10" target="Ovh7vEMm-vPmfpvyHuoS-1">
          <mxGeometry relative="1" as="geometry" />
        </mxCell>
        <mxCell id="Ovh7vEMm-vPmfpvyHuoS-10" value="Оформляет" style="rhombus;whiteSpace=wrap;html=1;" vertex="1" parent="1">
          <mxGeometry x="260" y="500" width="80" height="80" as="geometry" />
        </mxCell>
        <mxCell id="Ovh7vEMm-vPmfpvyHuoS-12" style="edgeStyle=orthogonalEdgeStyle;rounded=0;orthogonalLoop=1;jettySize=auto;html=1;entryX=1;entryY=0.5;entryDx=0;entryDy=0;endArrow=ERoneToMany;endFill=0;" edge="1" parent="1" source="Ovh7vEMm-vPmfpvyHuoS-11">
          <mxGeometry relative="1" as="geometry">
            <mxPoint x="780" y="440" as="targetPoint" />
            <Array as="points">
              <mxPoint x="840" y="440" />
            </Array>
          </mxGeometry>
        </mxCell>
        <mxCell id="Ovh7vEMm-vPmfpvyHuoS-18" style="edgeStyle=orthogonalEdgeStyle;rounded=0;orthogonalLoop=1;jettySize=auto;html=1;endArrow=ERoneToMany;endFill=0;" edge="1" parent="1" source="Ovh7vEMm-vPmfpvyHuoS-11" target="Ovh7vEMm-vPmfpvyHuoS-4">
          <mxGeometry relative="1" as="geometry" />
        </mxCell>
        <mxCell id="Ovh7vEMm-vPmfpvyHuoS-11" value="Поставляет" style="rhombus;whiteSpace=wrap;html=1;" vertex="1" parent="1">
          <mxGeometry x="800" y="500" width="80" height="80" as="geometry" />
        </mxCell>
        <mxCell id="Ovh7vEMm-vPmfpvyHuoS-19" value="Материал" style="rounded=0;whiteSpace=wrap;html=1;" vertex="1" parent="1">
          <mxGeometry x="660" y="410" width="120" height="60" as="geometry" />
        </mxCell>
        <mxCell id="Ovh7vEMm-vPmfpvyHuoS-21" style="edgeStyle=orthogonalEdgeStyle;rounded=0;orthogonalLoop=1;jettySize=auto;html=1;entryX=1;entryY=0.5;entryDx=0;entryDy=0;endArrow=ERzeroToMany;endFill=0;" edge="1" parent="1" source="Ovh7vEMm-vPmfpvyHuoS-20" target="Ovh7vEMm-vPmfpvyHuoS-2">
          <mxGeometry relative="1" as="geometry" />
        </mxCell>
        <mxCell id="Ovh7vEMm-vPmfpvyHuoS-22" style="edgeStyle=orthogonalEdgeStyle;rounded=0;orthogonalLoop=1;jettySize=auto;html=1;endArrow=ERoneToMany;endFill=0;" edge="1" parent="1" source="Ovh7vEMm-vPmfpvyHuoS-20" target="Ovh7vEMm-vPmfpvyHuoS-19">
          <mxGeometry relative="1" as="geometry" />
        </mxCell>
        <mxCell id="Ovh7vEMm-vPmfpvyHuoS-20" value="Содержит" style="rhombus;whiteSpace=wrap;html=1;" vertex="1" parent="1">
          <mxGeometry x="530" y="400" width="80" height="80" as="geometry" />
        </mxCell>
      </root>
    </mxGraphModel>
  </diagram>
</mxfile>
